<?xml version="1.0" encoding="UTF-8" standalone="no"?>
<svg
   xmlns:dc="http://purl.org/dc/elements/1.1/"
   xmlns:cc="http://creativecommons.org/ns#"
   xmlns:rdf="http://www.w3.org/1999/02/22-rdf-syntax-ns#"
   xmlns:svg="http://www.w3.org/2000/svg"
   xmlns="http://www.w3.org/2000/svg"
   xmlns:sodipodi="http://sodipodi.sourceforge.net/DTD/sodipodi-0.dtd"
   xmlns:inkscape="http://www.inkscape.org/namespaces/inkscape"
   version="1.1"
   id="svg2"
   width="610"
   height="770.43256"
   viewBox="0 0 610 770.43256"
   sodipodi:docname="logo_with_borders.svg"
   inkscape:version="1.0.1 (3bc2e813f5, 2020-09-07)">
  <metadata
     id="metadata8">
    <rdf:RDF>
      <cc:Work
         rdf:about="">
        <dc:format>image/svg+xml</dc:format>
        <dc:type
           rdf:resource="http://purl.org/dc/dcmitype/StillImage" />
        <dc:title></dc:title>
      </cc:Work>
    </rdf:RDF>
  </metadata>
  <defs
     id="defs6" />
  <sodipodi:namedview
     pagecolor="#000000"
     bordercolor="#666666"
     borderopacity="1"
     objecttolerance="10"
     gridtolerance="10"
     guidetolerance="10"
     inkscape:pageopacity="0"
     inkscape:pageshadow="2"
     inkscape:window-width="1920"
     inkscape:window-height="992"
     id="namedview4"
     showgrid="false"
     inkscape:zoom="0.92602277"
     inkscape:cx="216.06184"
     inkscape:cy="402.21061"
     inkscape:window-x="-8"
     inkscape:window-y="-8"
     inkscape:window-maximized="1"
     inkscape:current-layer="g10"
     inkscape:document-rotation="0"
     inkscape:pagecheckerboard="false" />
  <g
     inkscape:groupmode="layer"
     inkscape:label="Border"
     id="g10"
     transform="translate(-207,-126.72033)">
    <path
       id="path1128"
       style="fill:#d5cbc2;fill-opacity:1;stroke:#d5cbc2;stroke-width:18;stroke-miterlimit:4;stroke-dasharray:none;stroke-opacity:1;stroke-linecap:round;stroke-linejoin:round"
       d="m 462.86327,135.79251 -6.99414,2.25391 c -23.9216,7.70447 -62.80013,46.31651 -76.61914,76.09571 -7.4485,16.051 -15.95607,43.70504 -22.66797,73.67968 -3.0568,13.65181 -6.6586,28.80424 -8.00391,33.67383 l -2.44531,8.85352 2.68359,-0.50977 c 1.4762,-0.28122 11.30706,-2.3227 21.84766,-4.53515 28.85559,-6.05671 41.20705,-7.91677 71.33594,-10.75 37.3406,-3.51139 102.7801,-4.48198 134,-1.98633 25.4585,2.03511 45.35261,4.23641 54.5,6.02929 3.85001,0.75461 8.97923,1.68736 11.39844,2.07227 l 4.39843,0.69922 -2.01172,-2.86328 c -1.1065,-1.57465 -3.16055,-5.28349 -4.56445,-8.24219 l -2.55273,-5.37891 2.37109,-2.37109 c 1.3038,-1.3038 2.84101,-2.37109 3.41602,-2.37109 0.575,0 1.04492,-0.45 1.04492,-1 0,-1.46329 -5.53788,-1.21907 -9.45117,0.41601 -1.8625,0.7782 -3.54588,1.25292 -3.74219,1.05664 -0.19629,-0.19628 -3.27092,-0.87843 -6.83203,-1.51562 -19.287,-3.45104 -20.97504,-3.65651 -20.99024,-2.56055 -0.01,0.60692 -0.41811,0.46604 -0.91211,-0.31445 -0.5897,-0.93171 -5.30842,-2.01957 -13.73632,-3.16602 -12.068,-1.6416 -17.87574,-2.18648 -52.83594,-4.96094 -23.3358,-1.85193 -70.654,0.37318 -99,4.65625 -21.6625,3.27319 -37.88889,6.8733 -58.99219,13.08985 -1.7246,0.50803 -1.81568,0.37547 -0.67578,-0.99805 3.28591,-3.95919 50.79611,-16.83804 77.9375,-21.12695 22.536,-3.56115 80.75194,-4.63504 112.24805,-2.07031 30.0987,2.45095 58.80582,9.14744 63.11523,14.72265 1.5879,2.05434 1.73135,2.0653 5.24805,0.39649 2.4835,-1.17842 4.78949,-1.5192 7.36719,-1.08594 8.84699,1.48703 18.26411,3.5148 20.79882,4.47851 1.5021,0.57111 2.97113,0.79835 3.26563,0.50391 0.7944,-0.79441 -3.6163,-23.62271 -6.4668,-33.4668 -3.7331,-12.89205 -11.86275,-34.21063 -17.75195,-46.55468 -14.3203,-30.01613 -33.77139,-53.08645 -58.96289,-69.9336 -19.8938,-13.30429 -28.8868,-15.81315 -48.875,-13.63477 -21.1183,2.30154 -33.08576,2.41783 -53.06836,0.51367 z m 188.23242,168.52344 c -2.5952,0.0698 -3.0957,2.07004 -3.0957,6.375 0,2.65627 1.85471,8.38482 3.66211,11.31055 0.12181,0.19712 5.30969,1.12092 11.52929,2.05469 6.2195,0.93377 11.49294,1.56346 11.71875,1.39844 0.2258,-0.16503 -0.4492,-1.26745 -1.5,-2.45118 -1.3732,-1.54699 -1.55864,-2.27556 -0.66015,-2.58984 2.28021,-0.79759 1.29741,-2.10094 -2.5,-3.31445 -5.244,-1.67576 -5.67378,-2.35863 -2.83008,-4.49414 l 2.48828,-1.86914 -8.20312,-3.25586 c -5.3045,-2.10568 -8.59088,-3.21838 -10.60938,-3.16407 z m 27.18945,5.25782 c -0.1797,0.0113 -0.28515,0.11797 -0.28515,0.32422 0,0.55 0.70917,1.58902 1.57617,2.30859 1.115,0.9253 1.40051,2.24708 0.97461,4.51758 -0.587,3.12896 0.43134,6.60001 3.27734,11.16797 0.771,1.2375 2.00032,2.25 2.73243,2.25 1.0822,0 1.04527,-0.98187 -0.20313,-5.25 -2.1502,-7.35103 -4.74211,-13.00871 -6.69531,-14.6211 -0.5715,-0.47178 -1.07736,-0.71609 -1.37696,-0.69726 z M 518.0371,321.13236 c -30.654,-0.0873 -61.73661,1.09978 -87.03711,3.58008 -17.8986,1.75467 -52.1744,6.6571 -66,9.43945 -5.225,1.05151 -16.925,3.31633 -26,5.0332 -34.8028,6.58423 -73.42701,17.42184 -90.53125,25.40235 -22.34306,10.42485 -32.46875,20.10915 -32.46875,31.05469 0,15.61253 20.9653,31.16022 56.58203,41.96289 13.7249,4.16278 32.0905,8.53711 35.8457,8.53711 1.4148,0 2.57227,0.45841 2.57227,1.01757 0,0.55916 -2.42307,5.84858 -5.38477,11.75391 -2.9616,5.90533 -6.84365,14.78441 -8.62695,19.73242 -2.9594,8.21125 -3.24686,10.04338 -3.28906,20.9961 l -0.0449,12 5.0879,10 5.08984,10 -1.98438,3.5 c -2.4324,4.28994 -9.27408,12.16384 -8.49218,9.77343 1.5947,-4.87536 2.59855,-18.81108 1.78515,-24.77343 l -0.88672,-6.5 -0.12695,10.30273 c -0.07,5.66643 -0.86367,13.54092 -1.76367,17.49805 -1.5789,6.94183 -1.8865,7.42186 -8.75,13.67578 -16.3594,14.90646 -27.09081,26.617 -30.82227,33.63476 -6.26892,11.78995 -8.0845,22.15145 -5.41406,30.88868 1.1653,3.81278 1.21994,3.57876 1.18164,-5 -0.0443,-9.91517 1.5319,-14.77564 8.26367,-25.5 3.84045,-6.1182 18.15839,-20.76193 22.42579,-22.93555 3.5805,-1.82378 4.60828,-0.67138 2.42968,2.72656 -3.954,6.16685 -10.66175,20.30937 -13.15625,27.74024 -1.4676,4.37205 -4.21433,10.49357 -6.10351,13.60351 -8.66613,14.26598 -11.01588,25.22128 -10.15625,47.33399 0.5319,13.68213 1.64101,18.27688 6.35937,26.32812 3.09206,5.27621 4.29144,4.93767 1.5918,-0.44922 -2.2718,-4.53324 -2.91571,-6.99894 -4.78125,-18.34765 -1.87215,-11.3889 -1.72019,-12.3967 0.98047,-6.5 l 2.29101,5 0.50977,-14 c 0.85156,-23.42241 3.00517,-27.21435 32.86523,-57.82813 11.1733,-11.45533 20.88859,-21.58033 21.58789,-22.5 2.6785,-3.52242 1.12811,0.80172 -4.09179,11.41211 -3.2504,6.60704 -8.3633,14.7777 -12.75,20.375 -4.0279,5.13956 -10.87625,13.88911 -15.21875,19.44336 -14.0695,17.99541 -18.34819,31.20327 -15.21485,46.98047 1.96141,9.87652 5.58114,19.26063 9.78125,25.36523 2.45179,3.56359 2.76831,4.61952 1.75391,5.8418 -0.681,0.82057 -2.24195,3.65869 -3.46875,6.30664 -8.1977,17.69385 -7.76229,37.41765 1.06641,48.28711 1.9283,2.37404 3.77632,5.10391 4.10742,6.06641 0.3311,0.9625 1.02662,1.75 1.54492,1.75 0.5183,0 0.68986,0.41013 0.38086,0.91015 -0.6903,1.11683 -9.87924,-0.94018 -14.05664,-3.14648 -3.12244,-1.64917 -7.36984,-5.82187 -9.42969,-9.26367 -1.05819,-1.76812 -1.12143,-1.65218 -0.55469,1 2.16452,10.12923 12.77645,16.89829 26.31055,16.78125 7.1253,-0.0616 6.84241,-0.31322 15.56641,13.88476 2.1409,3.48427 4.08556,5.7855 4.32226,5.11524 0.2366,-0.67027 -1.62718,-4.10196 -4.14258,-7.62696 -2.5154,-3.52501 -4.86003,-7.92651 -5.21093,-9.78125 l -0.63868,-3.37304 3.26758,3 c 5.0482,4.63507 9.00991,10.53188 9.00391,13.40039 -0.011,5.1739 -2.22779,10.39788 -6.27539,14.78906 -6.116,6.63504 -10.77512,8.74555 -19.38672,8.78125 -6.517,0.027 -7.59379,-0.27019 -11.83789,-3.26172 l -3.98438,-2.80859 -0.68359,-0.48047 2.32031,4.12695 c 7.4515,13.25812 26.53808,21.66624 47.02539,20.71485 7.86989,-0.36547 10.69099,-0.94905 15.14649,-3.12891 5.4045,-2.64417 12.85534,-9.36655 15.33593,-13.83594 2.05321,-3.69928 1.68943,0.26439 -0.76757,8.35352 -3.2064,10.55659 -2.462,23.92556 1.8457,33.10937 3.732,7.95655 11.30796,16.35567 18.06836,20.03516 2.6517,1.44322 8.09044,3.16437 12.08594,3.82422 6.2996,1.04036 7.97969,0.97356 12.65429,-0.5 2.965,-0.93462 5.70585,-2.20686 6.08985,-2.82813 0.4776,-0.77274 0.093,-0.89364 -1.2168,-0.38086 -1.0527,0.41226 -4.23281,1.13297 -7.06641,1.60157 -8.1851,1.35357 -16.17687,-1.57719 -24.63867,-9.03321 -7.5665,-6.66722 -11.68864,-16.71469 -11.68164,-28.47851 0,-7.70923 1.19861,-9.81884 3.00781,-5.31641 4.3201,10.75118 18.05246,25.16783 28.47266,29.89258 9.4559,4.28748 20.73628,5.29491 27.76758,2.48047 5.963,-2.38682 10.24485,-7.72231 11.28125,-14.05664 l 0.6543,-4 -2.98633,4.59765 c -1.6427,2.52848 -4.34697,5.56598 -6.00977,6.75 -3.09312,2.20249 -10.21484,3.00577 -10.21484,1.15235 0,-0.55 1.35,-1 3,-1 1.65,0 3,-0.18796 3,-0.41797 0,-0.23002 0.25019,-1.06773 0.55469,-1.86133 0.4095,-1.06703 -0.51327,-1.58634 -3.53907,-1.99219 -2.25049,-0.30186 -5.23652,-1.2994 -6.63672,-2.21679 -2.3174,-1.51847 -6.30392,-8.46726 -6.35742,-11.08399 -0.012,-0.59043 2.7447,-1.58815 6.125,-2.2168 7.2805,-1.35394 15.49303,-5.95 21.92383,-12.26757 5.4004,-5.30527 8.19365,-12.53755 9.93945,-25.73438 0.6033,-4.56038 1.98567,-10.36547 3.07227,-12.90039 1.0866,-2.53493 2.49897,-7.66181 3.13867,-11.39258 l 1.16406,-6.7832 2.22657,3.01758 c 3.1916,4.326 5.72342,16.75124 5.16992,25.375 -0.4562,7.10942 -3.82074,16.43844 -7.55274,20.94726 -0.9228,1.11491 0.22915,0.24238 2.56055,-1.93945 2.3314,-2.18183 5.42495,-5.676 6.87305,-7.76563 1.4481,-2.08964 4.21549,-5.47774 6.15039,-7.52929 1.9348,-2.05154 4.31722,-5.53983 5.29492,-7.75 2.3827,-5.38646 3.81455,-17.71191 2.84375,-24.48828 -1.015,-7.08468 -5.42033,-22.04134 -7.95703,-27.01368 -1.8648,-3.65539 -1.89413,-4.26913 -0.51563,-11.17578 0.8024,-4.02005 1.60461,-8.88554 1.78321,-10.81054 l 0.32617,-3.5 2.06055,4.5 c 3.2749,7.14727 5.41802,17.24498 6.11132,28.79882 0.5918,9.86296 0.70333,10.30933 1.41993,5.70118 1.0559,-6.7902 -0.70063,-19.78813 -4.39063,-32.5 -5.906,-20.34561 -7.55637,-25.57669 -10.57227,-33.5 -4.72339,-12.40913 -6.1583,-15.57237 -9.8164,-21.63086 -1.8699,-3.09695 -3.40039,-5.85641 -3.40039,-6.13282 0,-0.27641 0.93733,-0.74753 2.08203,-1.04687 1.6321,-0.42683 2.3669,0.14082 3.4082,2.63281 1.8144,4.34173 5.35293,8.67774 7.08203,8.67774 0.785,0 1.42774,0.45 1.42774,1 0,1.28072 3.69605,5 4.96875,5 0.5328,0 0.68128,-0.74885 0.33008,-1.66407 -0.4293,-1.11889 -0.25545,-1.42758 0.53125,-0.9414 0.6434,0.39769 1.16992,1.27526 1.16992,1.94922 0,1.90467 5.70409,4.97552 6.33789,3.41211 0.3435,-0.84743 0.77864,-0.91583 1.33594,-0.2129 0.4544,0.57307 2.78252,1.6712 5.17382,2.44141 2.6828,0.86411 4.65645,2.20935 5.15235,3.51367 1.1802,3.10416 7.64615,7.6914 10.34375,7.33789 1.2637,-0.16559 3.54049,0.51313 5.05859,1.50782 1.5181,0.99469 3.36934,1.57525 4.11524,1.28906 1.3854,-0.53166 9.5628,2.20653 10.5039,3.51758 3.0701,4.27699 19.78665,3.11835 21.55664,-1.49414 0.31461,-0.81978 1.34957,-1.22563 2.41407,-0.94727 3.8021,0.99428 30.45721,-11.45257 37.00781,-17.28125 1.925,-1.71284 4.99562,-3.62447 6.82422,-4.24609 3.7297,-1.26786 9.67578,-5.90382 9.67578,-7.54492 0,-1.59668 4.26459,-5.89954 5.24609,-5.29297 1.3056,0.80693 2.60958,-0.26766 14.08007,-11.60743 18.0358,-17.83035 25.30149,-27.22623 33.6582,-43.52929 2.6199,-5.11123 4.92727,-9.12938 5.12697,-8.92969 0.96079,0.96079 -1.95598,24.37372 -4.13869,33.22266 -2.00009,8.10898 -4.87755,14.81843 -15.21875,35.47656 -7.014,14.01161 -14.18916,27.6845 -15.94335,30.38476 -5.70281,8.77861 -10.34635,20.98169 -10.80665,28.40235 l -0.41795,6.73633 0.91015,-6.36524 c 0.6127,-4.29187 2.4243,-9.34251 5.5586,-15.5 8.7866,-17.26169 10.67791,-19.2732 9.29881,-9.88476 -2.0564,13.99935 -7.45696,26.23547 -15.16796,34.36718 -13.034,13.74517 -21.76968,34.85895 -19.67969,47.56641 0.9909,6.02456 2.25453,8.76218 5.80273,12.56641 3.7428,4.0129 4.94321,3.37019 1.34961,-0.72266 -3.1236,-3.55759 -5.14234,-8.93497 -5.15234,-13.72461 0,-1.48411 1.22251,-6.43411 2.72461,-11 l 2.73242,-8.30273 0.60547,9.5 c 0.3535,5.54323 1.3165,11.09175 2.3125,13.32226 3.0177,6.75781 3.6045,12.54108 2.0332,20.05274 -3.8051,18.19012 5.60878,40.23202 20.11328,47.09375 2.9422,1.39188 5.59062,2.53125 5.88672,2.53125 0.29601,0 -2.27393,-2.8125 -5.71094,-6.25 -4.9102,-4.911 -6.61935,-7.44715 -7.97656,-11.83789 -3.3816,-10.93974 -1.53351,-24.73966 4.74609,-35.45508 1.4873,-2.53787 2.91212,-4.40617 3.16602,-4.15235 0.2538,0.25381 -0.0679,3.49829 -0.71484,7.21094 -2.6338,15.12468 1.70479,32.67825 11.65429,47.14453 4.94061,7.18341 9.42443,18.26657 9.39063,23.21485 -0.05,7.30452 -5.20615,12.125 -12.96875,12.125 -4.69731,0 -7.28965,-1.11462 -11.30664,-4.86328 -2.58541,-2.41278 -2.7434,-2.44826 -2,-0.45313 1.3372,3.58819 5.17762,7.35224 9.61523,9.42383 6.2643,2.92432 16.09594,2.27114 21.42774,-1.42383 4.6872,-3.24823 8.92258,-10.47978 9.80468,-16.74023 1.0157,-7.20852 0.83509,-7.11883 7.48828,-3.6875 8.288,4.27445 16.49767,4.86383 23.82227,1.71289 6.3043,-2.71203 6.25057,-3.4041 -0.11523,-1.48829 -7.0676,2.12703 -14.97226,0.20235 -21.33985,-5.19531 -6.1354,-5.20083 -12.40544,-20.64252 -12.39843,-30.53515 0,-5.89217 1.28003,-6.10799 2.95703,-0.5 4.4074,14.73883 15.97031,26.14104 28.54492,28.14648 5.66449,0.9034 15.18979,-0.92525 19.42578,-3.72852 3.72001,-2.46177 9.57664,-11.77215 8.76954,-13.9414 -0.2509,-0.67439 -0.93814,-0.0162 -1.52734,1.46289 -2.0237,5.07962 -9.16293,6.38554 -15.95703,2.91797 -6.1252,-3.1262 -9.67932,-8.49251 -10.76172,-16.25196 l -0.60743,-4.35546 2.02734,2.5 2.02734,2.5 -0.92383,-4 c -1.28629,-5.56908 -1.21708,-6.25557 0.85352,-8.32618 1.00451,-1.00452 2.14776,-2.65995 2.53906,-3.67968 0.5981,-1.55844 1.25782,-1.0446 4.13672,3.23047 4.3741,6.49513 7.77645,8.87659 15.53125,10.86328 9.9064,2.53792 18.96036,0.2902 25.16406,-6.2461 3.086,-3.25157 5.82108,-9.21078 5.76368,-12.55859 -0.034,-1.97878 -0.22181,-1.86534 -1.40821,0.86133 -1.9542,4.49125 -8.49713,11.43048 -12.26953,13.00976 -4.1263,1.72733 -11.44078,1.72196 -15.58008,-0.008 -3.39639,-1.4191 -9.69349,-7.85629 -9.71679,-9.93359 -0.01,-0.66836 -0.28549,-2.22735 -0.61719,-3.46485 -0.35261,-1.31582 -0.15453,-2.25 0.47656,-2.25 2.533,0 12.39288,-4.35552 17.85938,-7.88867 9.7874,-6.32596 13.91843,-15.01099 15.82812,-33.28906 l 0.59375,-5.67969 3.18555,1.84375 c 4.5202,2.61654 13.30254,5.01367 18.36914,5.01367 4.67499,0 5.32526,1.0805 3.16406,5.26368 -0.6355,1.23004 -1.45768,2.91132 -1.82617,3.73632 -1.2135,2.71729 -9.98199,7.87229 -14.55859,8.5586 -2.4667,0.3699 -4.76939,1.13265 -5.11719,1.69531 -0.9128,1.47702 6.12296,0.0172 11.94336,-2.47852 5.621,-2.41028 12.23925,-9.46151 13.81445,-14.71875 0.92511,-3.08796 1.81915,-3.92049 5.74805,-5.35546 6.58349,-2.40454 13.75803,-8.01096 17.20312,-13.44336 3.8507,-6.07189 3.71899,-6.72252 -0.54492,-2.70118 -3.8207,3.6034 -12.87123,7.44336 -17.54492,7.44336 -2.89071,0 -2.96289,-0.12108 -2.96289,-5.02929 0,-3.11488 -0.95191,-7.29257 -2.5,-10.97071 -1.375,-3.26685 -2.5,-6.15083 -2.5,-6.41015 0,-0.25932 2.79474,-1.9615 6.21094,-3.78125 17.7851,-9.47381 26.36673,-24.83082 23.64453,-42.31641 -0.9316,-5.98341 -0.82127,-7.02937 1.20703,-11.29297 6.8857,-14.47399 6.56989,-26.07334 -1.125,-41.32031 -3.30971,-6.55795 -12.99742,-19.66888 -20.60742,-27.88867 l -5.33008,-5.75586 v -9.4336 c 0,-11.53288 -1.57834,-17.31209 -8.08203,-29.57617 l -4.91992,-9.27734 2.21679,-6.22266 c 1.6836,-4.72318 2.22665,-8.51192 2.25195,-15.72265 0.047,-13.30793 -2.85315,-19.75671 -14.41015,-32.03907 -6.77571,-7.20102 -7.4153,-8.52653 -11.625,-24.13671 -1.9761,-7.32795 -4.90432,-15.76288 -6.50781,-18.74415 -1.60351,-2.98128 -2.71988,-5.61604 -2.48047,-5.85546 0.2395,-0.23942 6.4252,-1.91354 13.74609,-3.72071 39.55781,-9.76477 69.39619,-23.35467 79.61719,-36.25976 3.43899,-4.342 6.19336,-10.969 6.19336,-14.90235 0,-3.48908 -4.29035,-11.34895 -8.16016,-14.94726 -16.3368,-15.19064 -67.30145,-33.88995 -107.33984,-39.38477 -4.4,-0.60385 -10.25,-1.52717 -13,-2.05273 -2.75,-0.52555 -11.525,-1.83336 -19.5,-2.9043 -7.97501,-1.07095 -22.15,-3.08265 -31.5,-4.4707 -9.35001,-1.38805 -21.05,-2.97363 -26,-3.52344 -23.5835,-2.61946 -53.80889,-3.98108 -84.46289,-4.06836 z" />
  </g>
  <g
     inkscape:groupmode="layer"
     id="layer1"
     inkscape:label="Logo"
     style="display:inline"
     sodipodi:insensitive="true">
    <path
       id="path1278"
       style="fill:#010000;fill-opacity:1;stroke:none;stroke-width:4;stroke-miterlimit:4;stroke-dasharray:none;stroke-opacity:1"
       d="m 462.86328,135.8559 -6.99414,2.25391 c -23.9216,7.70447 -62.80013,46.31651 -76.61914,76.0957 -7.4485,16.051 -15.95607,43.70505 -22.66797,73.67969 -3.0568,13.65181 -6.6586,28.80423 -8.00391,33.67382 l -2.44531,8.85352 2.6836,-0.50977 c 1.4762,-0.28122 11.30705,-2.3227 21.84765,-4.53515 28.85559,-6.05671 41.20705,-7.91677 71.33594,-10.75 37.3406,-3.51139 102.7801,-4.48198 134,-1.98633 25.4585,2.03511 45.35261,4.23642 54.5,6.0293 3.85001,0.75461 8.97923,1.68735 11.39844,2.07226 l 4.39844,0.69922 -2.01172,-2.86328 c -1.1065,-1.57465 -3.16056,-5.28349 -4.56446,-8.24219 l -2.55273,-5.3789 2.37109,-2.3711 c 1.3038,-1.3038 2.84101,-2.37109 3.41602,-2.37109 0.575,0 1.04492,-0.45 1.04492,-1 0,-1.46329 -5.53788,-1.21907 -9.45117,0.41601 -1.8625,0.7782 -3.54588,1.25292 -3.74219,1.05664 -0.19629,-0.19628 -3.27092,-0.87843 -6.83203,-1.51562 -19.287,-3.45104 -20.97503,-3.65651 -20.99023,-2.56055 -0.01,0.60692 -0.41811,0.46604 -0.91211,-0.31445 -0.5897,-0.93171 -5.30843,-2.01957 -13.73633,-3.16602 -12.068,-1.6416 -17.87574,-2.18647 -52.83594,-4.96093 -23.3358,-1.85193 -70.654,0.37318 -99,4.65625 -21.6625,3.27319 -37.88889,6.87329 -58.99219,13.08984 -1.7246,0.50803 -1.81568,0.37547 -0.67578,-0.99805 3.28591,-3.95919 50.79611,-16.83804 77.9375,-21.12695 22.536,-3.56115 80.75194,-4.63504 112.24805,-2.07031 30.0987,2.45095 58.80582,9.14744 63.11523,14.72265 1.5879,2.05434 1.73135,2.0653 5.24805,0.39649 2.4835,-1.17842 4.78949,-1.5192 7.36719,-1.08594 8.847,1.48703 18.26412,3.51481 20.79883,4.47852 1.5021,0.57111 2.97112,0.79834 3.26562,0.5039 0.7944,-0.79441 -3.6163,-23.6227 -6.4668,-33.46679 -3.7331,-12.89205 -11.86275,-34.21064 -17.75195,-46.55469 -14.3203,-30.01612 -33.77139,-53.08645 -58.96289,-69.9336 -19.8938,-13.30429 -28.8868,-15.81314 -48.875,-13.63476 -21.1183,2.30154 -33.08576,2.41783 -53.06836,0.51367 z m -1.34766,14.19141 c 0.64961,-0.11781 -0.32106,3.77277 -2.91406,10.46484 -4.9664,12.81777 -11.48666,22.93206 -24.94336,38.69336 -11.6919,13.69416 -21.8935,23.58092 -33.6582,32.61914 -7.9565,6.11255 -9,6.75679 -9,5.55469 0,-0.52006 3.14463,-3.51865 6.98633,-6.66211 3.8423,-3.14346 8.41225,-7.35683 10.15625,-9.36328 1.7439,-2.00644 8.70891,-9.72344 15.47851,-17.14844 14.73711,-15.70536 25.08205,-31.89011 34.97461,-49.35547 1.5566,-3.21795 2.53012,-4.73205 2.91992,-4.80273 z m 90.3711,4.6582 4.11133,7.95898 c 7.2731,14.07401 18.36782,27.53449 33.05273,40.10156 11.2642,9.63984 43.02946,33.43946 44.63086,33.43946 0.7251,0 1.31836,0.48297 1.31836,1.07226 0,0.58928 -0.61062,1.6829 -1.35742,2.42969 -1.1437,1.14375 -2.4443,0.79633 -8.25,-2.19726 -18.9732,-9.78335 -31.41103,-18.42459 -44.08203,-30.625 -19.1884,-18.47583 -28.49748,-33.5285 -29.17578,-47.17969 z m 99.20898,149.67383 c -2.5952,0.0698 -3.0957,2.07004 -3.0957,6.375 0,2.65627 1.85471,8.38481 3.66211,11.31054 0.12181,0.19712 5.3097,1.12092 11.5293,2.05469 6.2195,0.93377 11.49294,1.56346 11.71875,1.39844 0.2258,-0.16503 -0.4492,-1.26744 -1.5,-2.45117 -1.3732,-1.54699 -1.55865,-2.27557 -0.66016,-2.58985 2.28021,-0.79759 1.29741,-2.10094 -2.5,-3.31445 -5.244,-1.67576 -5.67378,-2.35863 -2.83008,-4.49414 l 2.48828,-1.86914 -8.20312,-3.25586 c -5.3045,-2.10568 -8.59088,-3.21837 -10.60938,-3.16406 z m 27.18946,5.25781 c -0.1797,0.0113 -0.28516,0.11797 -0.28516,0.32422 0,0.55 0.70917,1.58902 1.57617,2.30859 1.115,0.9253 1.40051,2.24708 0.97461,4.51758 -0.587,3.12896 0.43134,6.60001 3.27734,11.16797 0.771,1.2375 2.00033,2.25 2.73243,2.25 1.0822,0 1.04527,-0.98187 -0.20313,-5.25 -2.1502,-7.35103 -4.74211,-13.00871 -6.69531,-14.6211 -0.5715,-0.47178 -1.07735,-0.71609 -1.37695,-0.69726 z m -160.24805,11.55859 c -30.654,-0.0873 -61.73661,1.09978 -87.03711,3.58008 -17.8986,1.75467 -52.1744,6.6571 -66,9.43945 -5.225,1.05151 -16.925,3.31634 -26,5.03321 -34.8028,6.58422 -73.42701,17.42183 -90.53125,25.40234 C 226.12569,375.07567 216,384.75997 216,395.70551 c 0,15.61253 20.9653,31.16022 56.58203,41.96289 13.7249,4.16278 32.0905,8.53711 35.8457,8.53711 1.4148,0 2.57227,0.45842 2.57227,1.01758 0,0.55916 -2.42307,5.84857 -5.38477,11.7539 -2.9616,5.90533 -6.84365,14.78441 -8.62695,19.73242 -2.9594,8.21125 -3.24686,10.04338 -3.28906,20.9961 l -0.0449,12 5.08789,10 5.08984,10 -1.98437,3.5 c -2.4324,4.28994 -9.27409,12.16385 -8.49219,9.77344 1.5947,-4.87536 2.59855,-18.81109 1.78515,-24.77344 l -0.88671,-6.5 -0.12696,10.30273 c -0.07,5.66643 -0.86367,13.54092 -1.76367,17.49805 -1.5789,6.94183 -1.8865,7.42186 -8.75,13.67578 -16.3594,14.90646 -27.0908,26.61701 -30.82226,33.63477 -6.26892,11.78995 -8.08451,22.15144 -5.41407,30.88867 1.1653,3.81278 1.21994,3.57876 1.18164,-5 -0.0443,-9.91517 1.53191,-14.77564 8.26368,-25.5 3.84045,-6.1182 18.15838,-20.76193 22.42578,-22.93555 3.5805,-1.82378 4.60828,-0.67138 2.42968,2.72656 -3.954,6.16685 -10.66175,20.30937 -13.15625,27.74024 -1.4676,4.37205 -4.21433,10.49357 -6.10351,13.60351 -8.66613,14.26598 -11.01588,25.22128 -10.15625,47.33399 0.5319,13.68213 1.64101,18.27688 6.35937,26.32812 3.09206,5.27621 4.29144,4.93767 1.5918,-0.44922 -2.2718,-4.53324 -2.91571,-6.99894 -4.78125,-18.34765 -1.87215,-11.3889 -1.72019,-12.3967 0.98047,-6.5 l 2.29101,5 0.50977,-14 c 0.85156,-23.42241 3.00517,-27.21435 32.86523,-57.82813 11.1733,-11.45533 20.8886,-21.58033 21.5879,-22.5 2.6785,-3.52242 1.1281,0.80172 -4.0918,11.41211 -3.2504,6.60704 -8.3633,14.7777 -12.75,20.375 -4.0279,5.13956 -10.87625,13.88911 -15.21875,19.44336 -14.0695,17.99541 -18.34819,31.20327 -15.21485,46.98047 1.96141,9.87652 5.58115,19.26063 9.78126,25.36523 2.45179,3.56359 2.7683,4.61952 1.7539,5.8418 -0.681,0.82057 -2.24195,3.65869 -3.46875,6.30664 -8.1977,17.69385 -7.76229,37.41765 1.06641,48.28711 1.9283,2.37404 3.77632,5.10391 4.10742,6.06641 0.3311,0.9625 1.02662,1.75 1.54492,1.75 0.5183,0 0.68986,0.41013 0.38086,0.91015 -0.6903,1.11683 -9.87924,-0.94018 -14.05664,-3.14648 -3.12244,-1.64917 -7.36984,-5.82187 -9.42969,-9.26367 -1.05819,-1.76812 -1.12143,-1.65218 -0.55469,1 2.16452,10.12923 12.77645,16.89829 26.31055,16.78125 7.1253,-0.0616 6.84241,-0.31322 15.56641,13.88476 2.1409,3.48427 4.08556,5.7855 4.32226,5.11524 0.2366,-0.67027 -1.62717,-4.10195 -4.14257,-7.62695 -2.5154,-3.52501 -4.86004,-7.92652 -5.21094,-9.78126 l -0.63867,-3.37304 3.26757,3 c 5.0482,4.63507 9.00991,10.53188 9.00391,13.40039 -0.011,5.1739 -2.22779,10.39788 -6.27539,14.78906 -6.116,6.63504 -10.77512,8.74555 -19.38672,8.78125 -6.517,0.027 -7.59379,-0.27019 -11.83789,-3.26172 l -4.66797,-3.28906 2.32031,4.12695 c 7.4515,13.25812 26.53809,21.66624 47.0254,20.71485 7.86989,-0.36547 10.69098,-0.94905 15.14648,-3.12891 5.4045,-2.64417 12.85534,-9.36655 15.33594,-13.83594 2.0532,-3.69928 1.68942,0.26439 -0.76758,8.35352 -3.2064,10.55659 -2.462,23.92556 1.8457,33.10937 3.732,7.95655 11.30796,16.35567 18.06836,20.03516 2.6517,1.44322 8.09044,3.16437 12.08594,3.82422 6.2996,1.04036 7.9797,0.97356 12.6543,-0.5 2.965,-0.93462 5.70584,-2.20686 6.08984,-2.82813 0.4776,-0.77274 0.093,-0.89364 -1.2168,-0.38086 -1.0527,0.41226 -4.2328,1.13297 -7.0664,1.60157 -8.1851,1.35358 -16.17688,-1.57719 -24.63868,-9.03321 -7.5665,-6.66722 -11.68864,-16.71469 -11.68164,-28.47851 0,-7.70923 1.19862,-9.81884 3.00782,-5.31641 4.3201,10.75118 18.05245,25.16783 28.47265,29.89258 9.4559,4.28748 20.73628,5.29491 27.76758,2.48047 5.963,-2.38682 10.24485,-7.72231 11.28125,-14.05664 l 0.6543,-4 -2.98633,4.59765 c -1.6427,2.52848 -4.34697,5.56598 -6.00977,6.75 C 408.12174,855.25565 401,856.05893 401,854.20551 c 0,-0.55 1.35,-1 3,-1 1.65,0 3,-0.18796 3,-0.41797 0,-0.23002 0.25019,-1.06773 0.55469,-1.86133 0.4095,-1.06703 -0.51327,-1.58634 -3.53907,-1.99219 -2.25049,-0.30186 -5.23651,-1.29939 -6.63671,-2.21679 -2.3174,-1.51846 -6.30393,-8.46726 -6.35743,-11.08399 -0.012,-0.59043 2.7447,-1.58814 6.125,-2.21679 7.2805,-1.35394 15.49303,-5.95001 21.92383,-12.26758 5.4004,-5.30527 8.19366,-12.53755 9.93946,-25.73438 0.6033,-4.56038 1.98566,-10.36547 3.07226,-12.90039 1.0866,-2.53493 2.49897,-7.66181 3.13867,-11.39258 l 1.16407,-6.7832 2.22656,3.01758 c 3.1916,4.326 5.72342,16.75124 5.16992,25.375 -0.4562,7.10942 -3.82073,16.43844 -7.55273,20.94726 -0.9228,1.11491 0.22914,0.24238 2.56054,-1.93945 2.3314,-2.18183 5.42495,-5.67599 6.87305,-7.76562 1.4481,-2.08964 4.21549,-5.47775 6.15039,-7.5293 1.9348,-2.05154 4.31722,-5.53983 5.29492,-7.75 2.3827,-5.38646 3.81455,-17.71191 2.84375,-24.48828 -1.015,-7.08468 -5.42033,-22.04133 -7.95703,-27.01367 -1.8648,-3.65539 -1.89412,-4.26914 -0.51562,-11.17579 0.8024,-4.02005 1.6046,-8.88554 1.7832,-10.81054 l 0.32617,-3.5 2.06055,4.5 c 3.2749,7.14727 5.41803,17.24499 6.11133,28.79883 0.5918,9.86296 0.70332,10.30932 1.41992,5.70117 1.0559,-6.7902 -0.70063,-19.78813 -4.39063,-32.5 -5.906,-20.34561 -7.55636,-25.57669 -10.57226,-33.5 -4.7234,-12.40913 -6.15831,-15.57237 -9.81641,-21.63086 C 436.53049,659.9777 435,657.21825 435,656.94184 c 0,-0.27641 0.93733,-0.74754 2.08203,-1.04688 1.6321,-0.42683 2.3669,0.14082 3.4082,2.63281 1.8144,4.34173 5.35294,8.67774 7.08204,8.67774 0.785,0 1.42773,0.45 1.42773,1 0,1.28072 3.69605,5 4.96875,5 0.5328,0 0.68128,-0.74884 0.33008,-1.66406 -0.4293,-1.11889 -0.25545,-1.42759 0.53125,-0.94141 0.6434,0.39769 1.16992,1.27526 1.16992,1.94922 0,1.90467 5.70409,4.97552 6.33789,3.41211 0.3435,-0.84743 0.77864,-0.91583 1.33594,-0.21289 0.4544,0.57306 2.78253,1.67119 5.17383,2.4414 2.6828,0.86411 4.65644,2.20935 5.15234,3.51367 1.1802,3.10416 7.64615,7.69141 10.34375,7.3379 1.2637,-0.16559 3.54049,0.51312 5.05859,1.50781 1.5181,0.99469 3.36934,1.57525 4.11524,1.28906 1.3854,-0.53166 9.5628,2.20653 10.5039,3.51758 3.0701,4.27699 19.78665,3.11835 21.55664,-1.49414 0.31461,-0.81978 1.34957,-1.22563 2.41407,-0.94727 3.8021,0.99428 30.45721,-11.45257 37.00781,-17.28125 1.925,-1.71284 4.99562,-3.62447 6.82422,-4.24609 3.7297,-1.26786 9.67578,-5.90381 9.67578,-7.54492 0,-1.59667 4.26459,-5.89954 5.24609,-5.29297 1.3056,0.80693 2.60958,-0.26765 14.08008,-11.60742 18.0358,-17.83035 25.3015,-27.22624 33.65821,-43.5293 2.6199,-5.11123 4.92725,-9.12938 5.12695,-8.92969 0.9608,0.96079 -1.95597,24.37372 -4.13867,33.22266 -2.0001,8.10898 -4.87755,14.81843 -15.21875,35.47656 -7.014,14.01161 -14.18916,27.68451 -15.94336,30.38477 -5.7028,8.77861 -10.34634,20.98168 -10.80664,28.40234 l -0.41797,6.73633 0.91015,-6.36524 c 0.6127,-4.29187 2.4243,-9.34251 5.5586,-15.5 8.7866,-17.26169 10.67793,-19.2732 9.29883,-9.88476 -2.0564,13.99935 -7.45697,26.23548 -15.16797,34.36719 -13.034,13.74517 -21.76969,34.85894 -19.67969,47.5664 0.9909,6.02456 2.25453,8.76218 5.80273,12.56641 3.7428,4.0129 4.94321,3.37019 1.34961,-0.72266 -3.1236,-3.55759 -5.14234,-8.93497 -5.15234,-13.72461 0,-1.48411 1.22251,-6.43411 2.72461,-11 l 2.73242,-8.30273 0.60547,9.5 c 0.3535,5.54323 1.3165,11.09175 2.3125,13.32226 3.0177,6.75781 3.6045,12.54108 2.0332,20.05274 -3.8051,18.19012 5.60878,40.23202 20.11328,47.09375 2.9422,1.39188 5.59062,2.53125 5.88672,2.53125 0.29601,0 -2.27393,-2.8125 -5.71094,-6.25 -4.9102,-4.911 -6.61935,-7.44715 -7.97656,-11.83789 -3.3816,-10.93974 -1.5335,-24.73966 4.7461,-35.45508 1.4873,-2.53787 2.91211,-4.40616 3.16601,-4.15234 0.2538,0.25381 -0.0679,3.49828 -0.71484,7.21093 -2.6338,15.12468 1.70479,32.67825 11.65429,47.14453 4.94061,7.18341 9.42443,18.26657 9.39063,23.21485 -0.05,7.30452 -5.20615,12.125 -12.96875,12.125 -4.69731,0 -7.28965,-1.11462 -11.30664,-4.86328 -2.58541,-2.41277 -2.7434,-2.44826 -2,-0.45313 1.3372,3.58819 5.17762,7.35224 9.61523,9.42383 6.2643,2.92432 16.09594,2.27114 21.42774,-1.42383 4.6872,-3.24823 8.92259,-10.47978 9.80469,-16.74023 1.0157,-7.20852 0.83508,-7.11883 7.48828,-3.6875 8.288,4.27445 16.49766,4.86383 23.82226,1.71289 6.3043,-2.71203 6.25057,-3.4041 -0.11523,-1.48828 -7.0676,2.12703 -14.97226,0.20234 -21.33985,-5.19532 -6.1354,-5.20083 -12.40543,-20.64252 -12.39843,-30.53515 0,-5.89217 1.28003,-6.10799 2.95703,-0.5 4.4074,14.73883 15.97031,26.14104 28.54492,28.14648 5.66449,0.9034 15.18979,-0.92525 19.42578,-3.72851 3.72001,-2.46177 9.57663,-11.77216 8.76953,-13.94141 -0.2509,-0.67439 -0.93814,-0.0162 -1.52734,1.46289 -2.0237,5.07962 -9.16293,6.38554 -15.95703,2.91797 -6.1252,-3.1262 -9.67932,-8.4925 -10.76172,-16.25195 l -0.60742,-4.35547 2.02734,2.5 2.02734,2.5 -0.92382,-4 c -1.2863,-5.56908 -1.21709,-6.25556 0.85351,-8.32617 1.0045,-1.00452 2.14776,-2.65996 2.53906,-3.67969 0.5981,-1.55844 1.25782,-1.0446 4.13672,3.23047 4.3741,6.49513 7.77645,8.87659 15.53125,10.86328 9.9064,2.53792 18.96037,0.29021 25.16407,-6.24609 3.086,-3.25157 5.82107,-9.21079 5.76367,-12.5586 -0.034,-1.97878 -0.22181,-1.86534 -1.40821,0.86133 -1.9542,4.49125 -8.49713,11.43049 -12.26953,13.00977 -4.1263,1.72733 -11.44078,1.72377 -15.58008,-0.006 -3.39639,-1.4191 -9.69349,-7.8563 -9.71679,-9.9336 -0.01,-0.66836 -0.28549,-2.22734 -0.61719,-3.46484 -0.35261,-1.31582 -0.15453,-2.25 0.47656,-2.25 2.533,0 12.39288,-4.35552 17.85938,-7.88867 9.7874,-6.32596 13.91843,-15.011 15.82812,-33.28907 l 0.59375,-5.67968 3.18555,1.84375 c 4.5202,2.61654 13.30254,5.01367 18.36914,5.01367 4.67499,0 5.32526,1.0805 3.16406,5.26367 -0.6355,1.23004 -1.45768,2.91133 -1.82617,3.73633 -1.2135,2.71729 -9.98199,7.87228 -14.55859,8.55859 -2.4667,0.3699 -4.76939,1.13265 -5.11719,1.69531 -0.9128,1.47702 6.12296,0.0172 11.94336,-2.47851 5.621,-2.41028 12.23925,-9.46151 13.81445,-14.71875 0.92511,-3.08796 1.81915,-3.92049 5.74805,-5.35547 6.58349,-2.40453 13.75803,-8.01096 17.20312,-13.44336 3.8507,-6.07189 3.71899,-6.72251 -0.54492,-2.70117 -3.8207,3.6034 -12.87123,7.44336 -17.54492,7.44336 -2.89071,0 -2.96289,-0.12109 -2.96289,-5.0293 0,-3.11488 -0.95191,-7.29256 -2.5,-10.9707 -1.375,-3.26685 -2.5,-6.15084 -2.5,-6.41016 0,-0.25932 2.79474,-1.9615 6.21094,-3.78125 17.7851,-9.47381 26.36673,-24.83081 23.64453,-42.3164 -0.9316,-5.98341 -0.82127,-7.02937 1.20703,-11.29297 6.8857,-14.47399 6.56989,-26.07335 -1.125,-41.32032 -3.30971,-6.55795 -12.99742,-19.66888 -20.60742,-27.88867 L 752,598.43793 v -9.43359 c 0,-11.53288 -1.57834,-17.3121 -8.08203,-29.57618 l -4.91992,-9.27734 2.21679,-6.22266 c 1.6836,-4.72318 2.22666,-8.51192 2.25196,-15.72265 0.047,-13.30793 -2.85316,-19.7567 -14.41016,-32.03906 -6.77571,-7.20102 -7.4153,-8.52654 -11.625,-24.13672 -1.9761,-7.32794 -4.90432,-15.76287 -6.50781,-18.74414 -1.60351,-2.98128 -2.71988,-5.61605 -2.48047,-5.85547 0.2395,-0.23942 6.4252,-1.91354 13.74609,-3.72071 39.55781,-9.76477 69.39619,-23.35467 79.61719,-36.25976 3.43899,-4.342 6.19336,-10.96899 6.19336,-14.90234 0,-3.48908 -4.29035,-11.34896 -8.16016,-14.94727 C 783.50304,362.4094 732.53839,343.71009 692.5,338.21527 c -4.4,-0.60385 -10.25,-1.52717 -13,-2.05273 -2.75,-0.52555 -11.525,-1.83336 -19.5,-2.9043 -7.97501,-1.07095 -22.15,-3.08265 -31.5,-4.4707 -9.35001,-1.38805 -21.05,-2.97363 -26,-3.52344 -23.5835,-2.61946 -53.80889,-3.98108 -84.46289,-4.06836 z m 89.41601,12.00977 c 6.52651,0 72.24288,9.86924 89.04688,13.37304 46.3764,9.66999 74.40493,20.40937 87.58594,33.5586 8.3296,8.30947 9.94562,14.18842 6.01172,21.85937 -1.64,3.19807 -7.09766,9.42295 -7.09766,8.09571 0,-0.25458 0.9,-2.22913 2,-4.38672 2.3512,-4.61182 2.58154,-11.17487 0.56055,-16.01172 -5.1744,-12.38424 -33.34774,-25.83834 -73.06055,-34.89258 -6.6,-1.50475 -15.6,-3.57596 -20,-4.60156 -4.39999,-1.02559 -19.02499,-3.69419 -32.5,-5.92969 -13.475,-2.2355 -29.45,-4.97063 -35.5,-6.07812 -6.04999,-1.10749 -12.9125,-2.2924 -15.25,-2.63477 -4.56179,-0.66814 -5.84758,-2.35156 -1.79688,-2.35156 z m -98.43554,14.01172 h 0.002 c 24.22081,-0.0262 56.93792,3.32582 78.15625,8.00781 10.1021,2.22912 34.02258,10.02092 39.76758,12.95312 5.7001,2.90925 7.10145,5.16327 8.19726,13.18165 1.3838,10.12599 6.35578,29.9244 8.67188,34.53515 3.1899,6.35037 5.45976,14.2667 4.47266,15.59766 -0.5115,0.68973 -0.59346,6.60981 -0.18946,13.71289 1.6879,29.68113 1.96334,35.03591 2.30274,44.65039 0.1971,5.582 0.6454,10.6122 0.99609,11.17969 0.3507,0.56749 0.22254,1.28973 -0.28515,1.60351 -0.5077,0.31377 -1.21784,4.95664 -1.57813,10.31836 -0.36031,5.36173 -1.09598,10.65315 -1.63477,11.75977 -0.5389,1.10662 -1.13481,3.35662 -1.32421,5 -0.1894,1.64338 -0.39434,3.15649 -0.45704,3.36132 -0.063,0.20485 -0.82581,-0.21785 -1.69531,-0.93945 -1.4038,-1.16506 -1.51194,-0.92737 -0.96484,2.12695 1.334,7.44646 1.30733,12.31942 -0.0723,13.69922 -0.7607,0.76079 -1.38281,2.95292 -1.38281,4.8711 0,1.91817 -0.41769,3.22854 -0.92969,2.91211 -0.512,-0.31644 -1.19568,-0.14793 -1.51758,0.37304 -0.322,0.52097 -0.1685,1.20415 0.3418,1.51953 0.5566,0.34403 0.47181,1.87107 -0.21289,3.81836 -1.5103,4.29451 -1.64134,4.42923 -2.68164,2.7461 -0.4902,-0.79314 -1.25291,-1.05586 -1.69531,-0.58399 -0.4424,0.47186 -0.24219,1.05915 0.44531,1.30469 0.6875,0.24553 1.25,1.04597 1.25,1.7793 0,0.73333 0.5625,1.54088 1.25,1.79297 1,0.36666 1,0.7232 0,1.7832 -1.0294,1.09118 -1.25,1.025 -1.25,-0.375 0,-3.24065 -1.61304,-1.67701 -3.40234,3.29883 -1.0187,2.83289 -2.41782,5 -3.22852,5 -0.7871,0 -1.69176,0.7875 -2.00976,1.75 -1.3044,3.94832 -5.78995,12.33633 -7.68555,14.37109 -1.1159,1.19776 -2.96196,3.89191 -4.10156,5.98633 -4.4148,8.11361 -9.82286,15.01135 -11.31836,14.4375 -0.9827,-0.37712 -1.29525,-0.0956 -0.93555,0.8418 0.5222,1.36098 -4.50251,6.74664 -6.0625,6.49804 -2.0471,-0.32621 -3.25586,0.25415 -3.25586,1.56446 0,0.79701 -1.6875,2.70582 -3.75,4.24023 -2.0625,1.53441 -4.48241,3.58781 -5.37891,4.56445 -0.8965,0.97664 -2.2465,1.54165 -3,1.25586 -0.78291,-0.29694 -2.19729,0.7196 -3.30078,2.3711 -9.2464,7.8907 -8.87066,6.08688 -10.75976,8.20703 l -2.36524,-2.55274 c -1.76881,-1.90865 -3.67187,-2.67528 -7.55469,-3.04492 -2.85478,-0.27177 -5.79861,-0.99916 -6.54101,-1.61523 -0.8843,-0.73402 -1.34961,-0.7602 -1.34961,-0.0781 0,0.5725 1.52472,1.98203 3.38672,3.13282 1.9499,1.20507 -7.64314,-3.38092 -7.36914,-1.94727 -0.4254,1.03049 -0.7557,1.95849 -1.01172,2.79688 4.57944,6.86098 -2.98886,9.78757 0,0 -1.1053,-1.65598 -2.91037,-3.53854 -5.75195,-5.5293 -0.5553,2.43147 -2.25391,2.19903 -2.25391,-0.3086 0,-1.25152 -0.43412,-1.79113 -1.10742,-1.375 -0.6866,0.42434 -0.87228,2.15906 -0.48828,4.56055 -3.5304,-8.5123 -0.5146,-1.52311 -5.56641,-8.41211 -2.279,-2.93924 -1.96764,-3.67927 -2.93164,-6.37109 -1.33989,-2.50368 -2.22262,-7.67979 -0.14063,-6.88086 0.9579,0.36759 1.18984,-0.0285 0.77735,-1.32813 -0.7727,-2.43471 -3.56605,-7.77148 -1.81445,-7.77148 2.0654,0 5.56608,-0.7867 3.27148,-2.86328 4.70904,-0.88145 4.45222,-2.62438 3.38477,-3.83985 -0.52739,-0.0797 -1.01584,-0.2706 -1.42774,-0.61718 -1.5676,-1.30509 0.34593,-0.61462 1.42774,0.61718 4.12088,0.62242 10.72694,-5.83304 3.58593,-2.72461 -0.8544,0.37191 1.45252,-1.80461 4.35742,-4.43554 1.9449,-1.7615 -4.52421,1.76003 -6.44921,0.57031 4.3357,-1.93646 6.85118,-3.18484 7.20898,-3.39844 7.1092,-1.6982 2.12715,-3.6372 -0.18945,-4.45117 -1.3189,-0.46343 -11.24786,-0.77897 -22.06446,-0.70117 -16.7306,0.12031 -20.0576,0.39714 -22.2832,1.85547 -2.2334,1.46334 -3.44388,1.56163 -8.26758,0.66992 -10.8818,-2.01161 -16.93924,-0.76566 -9.68554,1.99219 2.3704,0.90122 3.34604,2.96289 1.40234,2.96289 -0.55,0 -1,0.45 -1,1 0,0.55 0.94977,1 2.10938,1 1.7497,0 2.00116,0.42542 1.48046,2.5 -0.5141,2.04838 -0.26367,2.5 1.39063,2.5 1.1105,0 2.01953,0.45 2.01953,1 0,0.55 0.87381,1 1.94141,1 1.0675,0 2.20615,0.43105 2.53125,0.95703 0.3251,0.52598 1.36564,0.66645 2.31054,0.3125 1.5011,-0.56234 1.54304,-0.43133 0.34375,1.04297 -1.0394,1.27778 -1.06976,1.6875 -0.12695,1.6875 0.9932,0 0.9932,0.30328 0,1.5 -1.0391,1.252 -0.8997,1.5 0.8457,1.5 1.5151,0 1.9537,-0.482 1.5918,-1.75 -0.27481,-0.9625 0.034,-0.7375 0.68555,0.5 1.67669,3.18696 2.86141,2.78919 2.97851,-1 l 0.0996,-3.25 0.91602,3.90234 c 0.6853,2.92066 0.55986,4.44022 -0.49414,6.04883 -0.7744,1.18182 -1.24899,3.51447 -1.05469,5.18359 0.2862,2.458 -0.39902,3.77137 -3.60742,6.9043 -4.1246,4.02757 -5.31708,7.19561 -2.26758,6.02539 1.5905,-0.61024 1.59039,-0.53488 0,1.22461 -0.9328,1.0308 -1.43594,2.13247 -1.11914,2.44922 0.9531,0.95311 -2.59664,6.92089 -3.86524,6.49805 -0.6468,-0.21562 -1.27283,-1.64662 -1.39062,-3.17969 -0.2725,-3.54537 -0.90083,-4.14572 -2.74024,-2.61914 -2.13618,1.77283 -5.68036,8.0625 -4.54296,8.0625 0.5315,0 0.96679,0.45 0.96679,1 0,1.90887 -1.68495,0.98663 -2.84375,-1.55664 -0.8237,-1.80769 -0.8601,-3.12656 -0.125,-4.5 0.6297,-1.1766 0.66269,-1.94336 0.084,-1.94336 -1.31,0 -2.55385,6.09824 -1.40235,6.875 0.5097,0.34379 0.60313,1.75 0.20704,3.125 -0.68541,2.37959 -0.72542,2.39163 -0.82032,0.25 -0.055,-1.2375 -0.51749,-2.25 -1.02929,-2.25 -0.5117,0 -1.12684,-1.0125 -1.36524,-2.25 l -0.43164,-2.25 -0.13672,2.21484 c -0.2453,3.9893 -6.13672,5.48751 -6.13672,1.56055 0,-0.88421 -0.27864,-1.32875 -0.61914,-0.98828 -4.9494,1.40953 -6.37893,4.67111 -11.51953,-2.16016 -1.694,-2.30354 -4.34402,-4.84275 -5.89062,-5.64258 -1.5466,-0.79979 -3.78335,-2.8157 -4.96875,-4.48047 -1.1854,-1.66476 -2.54062,-2.78924 -3.01172,-2.49804 -1.1895,0.73515 -13.6423,-11.74327 -18.9668,-19.00586 -2.4194,-3.3 -5.88924,-7.38126 -7.71094,-9.07031 -1.8218,-1.68906 -3.3125,-3.38419 -3.3125,-3.76758 0,-0.38338 -1.8,-3.65998 -4,-7.28125 -2.2,-3.62128 -4,-6.78815 -4,-7.03711 0,-0.24897 -1.72623,-3.01612 -3.83593,-6.14844 -5.0888,-7.55563 -8.5236,-15.07016 -11.0625,-24.19531 -3.1376,-11.27701 -8.78436,-38.3172 -10.12696,-48.5 -0.6527,-4.95 -1.792,-13.05 -2.5332,-18 -0.7413,-4.95 -1.87668,-16.875 -2.52148,-26.5 l -1.17188,-17.5 2.58594,-6.12305 c 1.5665,-3.71021 3.5742,-12.18226 5.0957,-21.5 1.3811,-8.45737 3.24738,-19.87695 4.14648,-25.37695 0.8991,-5.5 2.06917,-11.18439 2.60157,-12.63281 2.1344,-5.80615 35.59146,-17.84426 63.60156,-22.88477 16.03954,-2.88636 46.49596,-5.95652 59.23633,-5.9707 z M 249.5,374.99652 l -6.19922,5.65625 c -3.40993,3.11059 -7.16059,7.20885 -8.33398,9.10743 -1.17339,1.89858 -2.44566,5.58826 -2.82813,8.19921 -0.49971,3.41125 -0.89966,4.23037 -1.41797,2.91407 -3.05672,-7.76273 2.39217,-16.91359 13.7793,-23.14258 z m 80.1543,35.98047 c 0.1411,0.007 0.12365,0.24886 -0.0605,0.72852 -3.56009,9.29413 -4.70901,12.80341 -5.94141,18.13086 -1.2667,5.4761 -3.54179,11.16826 -3.62109,9.06054 -0.092,-2.45713 2.37329,-15.58786 3.55859,-18.94726 0.7618,-2.15925 2.59742,-5.34662 4.07813,-7.08399 1.0761,-1.26265 1.75123,-1.90101 1.98633,-1.88867 z m 358.76953,1.50586 c 2.3484,-0.012 4.29199,1.8299 5.40039,5.5293 1.8014,6.01275 1.46742,9.90204 -2.36328,27.46484 -1.9469,8.92614 -5.33179,24.72117 -7.52149,35.09961 -4.8189,22.84056 -8.34753,31.95294 -14.89062,38.45703 -2.5849,2.56943 -6.29504,5.14945 -8.24414,5.73242 l -3.54297,1.06055 1.49414,-3.56055 c 1.00379,-2.39081 1.66512,-8.60034 2.01562,-18.90624 0.5041,-14.82593 0.6092,-15.4241 3.0586,-17.69532 1.3944,-1.29297 2.95343,-2.09338 3.46484,-1.77734 1.5492,0.95746 2.67325,-1.91743 2.68946,-6.87305 0.018,-5.68017 -1.51273,-7.13446 -2.41993,-2.29883 -0.3602,1.92019 -0.98166,3.49024 -1.38086,3.49024 -0.6816,0 -2.71725,-8.28453 -3.90625,-15.89844 -0.4714,-3.01893 -0.30816,-3.34154 1.46094,-2.87891 1.8197,0.47587 2.03931,-0.10356 2.53711,-6.68554 1.0754,-14.21958 4.54433,-19.85279 16.39453,-26.63281 2.9974,-1.71495 5.21755,-3.34888 4.93555,-3.63086 -1.0414,-1.04148 -7.51271,0.85348 -11.00391,3.22265 -3.9106,2.6538 -4.87752,1.97022 -1.51562,-1.07226 1.1469,-1.0379 3.62396,-3.98517 5.50586,-6.54883 2.73,-3.71902 5.48364,-5.58566 7.83203,-5.59766 z m -331.92578,24.87891 c 0.2878,0.002 0.5039,1.86458 0.9082,6.34375 1.1594,12.84777 3.64992,32.70544 4.57813,36.5 0.47079,1.925 1.15824,5.975 1.52734,9 1.5029,12.31491 5.48438,27.9833 9.45898,37.22265 2.3002,5.34703 3.89638,10.18453 3.54688,10.75 -1.1957,1.93466 -3.05074,1.02589 -6.86524,-3.36132 -6.2874,-7.23129 -8.90163,-11.66903 -11.83593,-20.09766 -3.8739,-11.12752 -3.89659,-26.81357 -0.0254,-17.76367 1.10521,2.58392 1.14513,2.59902 0.67773,0.25 -3.9115,-19.65993 -4.65947,-27.00402 -4.07227,-40 0.33539,-7.425 0.98802,-15.075 1.44922,-17 0.2817,-1.17578 0.47965,-1.84479 0.65235,-1.84375 z m 350.02343,11.42969 c 0.359,-0.094 1.07677,0.66041 2.19727,2.48828 1.8444,3.00862 7.28125,18.053 7.28125,20.14843 0,2.43252 -2.05655,0.0274 -4.25195,-4.97265 -4.1567,-9.46706 -6.30387,-17.38215 -5.22657,-17.66406 z m -4.39843,10.1289 c 0.416,0.15119 2.16672,2.93516 4.23633,6.78516 2.3653,4.4 5.54095,10.1375 7.05664,12.75 3.4193,5.89357 1.60907,6.32911 -2.07813,0.5 -3.3251,-5.2566 -9.3481,-18.15324 -9.30859,-19.9336 0,-0.0905 0.0337,-0.12315 0.0937,-0.10156 z m -387.36719,5.51563 c 0.219,0.0372 0.0681,0.88208 -0.30664,2.76953 -0.3823,1.925 -0.98937,12.5 -1.34766,23.5 -0.63921,19.61909 -0.7105,20.13199 -3.7832,26.93945 l -3.13281,6.93945 -1.64063,-3.92773 c -4.1295,-9.88345 -4.66317,-21.93804 -1.48047,-33.4707 1.9486,-7.06097 6.80096,-17.04484 10.43946,-21.48047 0.6881,-0.83887 1.08156,-1.29844 1.25195,-1.26953 z m 397.58398,20.15625 c 1.5429,-0.0168 6.66016,4.36011 6.66016,5.85547 0,0.47728 1.73994,3.43018 3.86523,6.5625 9.9407,14.65041 14.62387,27.66402 13.91797,38.66406 -0.777,12.10712 -1.76935,12.15654 -7.09375,0.35156 -7.43179,-16.47758 -15.89499,-40.89508 -15.27539,-44.07031 0.4397,-2.25288 0.17845,-2.75 -1.43945,-2.75 -2.14639,0 -2.80658,-3.36785 -0.89258,-4.55078 0.068,-0.0423 0.15501,-0.0614 0.25781,-0.0625 z m 16.33399,18.72656 c 0.4249,-0.182 2.02737,1.48941 4.17187,4.79883 3.071,4.73936 5.16047,9.11929 6.60157,13.83789 0.4145,1.35723 0.26499,2.25 -0.37891,2.25 -0.587,0 -1.06836,-0.70391 -1.06836,-1.56446 0,-2.06042 -4.04955,-11.43554 -4.93945,-11.43554 -0.381,0 -1.70306,-1.8 -2.93946,-4 -1.3955,-2.48292 -1.77776,-3.74516 -1.44726,-3.88672 z M 533.1875,516.96723 c -4.0833,0.0242 -8.78011,1.71466 -15.47461,5.20117 l -5.78906,3.01562 -3.93555,-2.48437 c -5.3614,-3.38448 -11.6621,-5.46104 -16.625,-5.47852 -5.7462,-0.0202 -13.74107,5.28511 -14.04297,9.31836 -0.1166,1.55817 -0.74187,3.47067 -1.38867,4.25 -2.3551,2.83776 0.2246,1.31465 4.5918,-2.71094 2.4627,-2.27004 4.47656,-3.66882 4.47656,-3.10742 0,1.76184 -6.4386,12.55076 -7.75,12.98633 -0.7491,0.24879 -1.25,-0.47342 -1.25,-1.80273 0,-2.15519 -0.0599,-2.14429 -2.07812,0.42187 -2.3463,2.98286 -6.71758,5.80281 -5.39258,3.47852 0.4232,-0.74237 1.71344,-2.46465 2.86914,-3.82813 1.1557,-1.36347 0.039,-0.68847 -2.48242,1.5 -8.9582,7.77582 -11.07458,9.42555 -11.79688,9.20313 -0.4021,-0.12384 -1.94203,1.07906 -3.42383,2.67187 L 451,552.49848 v -2.64649 c 0,-3.2763 -1.28224,-3.37376 -3.71484,-0.28125 -1.0233,1.30093 -2.88598,2.69028 -4.13868,3.08789 -3.89949,1.23761 -9.36082,6.81205 -11.79492,12.03907 -2.9024,6.23251 -2.91465,7.66681 -0.10156,12.00976 2.2853,3.52802 4.16053,4.73226 3.11133,1.99805 -0.3166,-0.825 -0.12868,-1.5 0.41601,-1.5 0.5447,0 1.22548,-0.90164 1.51368,-2.00391 0.3646,-1.39428 1.03869,-1.80561 2.21679,-1.35351 0.9314,0.35741 2.0267,0.11141 2.4336,-0.54688 0.5734,-0.92787 1.33935,-0.92418 3.40625,0.0176 2.2683,1.03349 4.12126,0.79309 12.41015,-1.60938 5.3587,-1.5532 10.46476,-3.43743 11.34766,-4.1875 0.883,-0.75006 2.29241,-1.0998 3.13281,-0.77734 0.8403,0.32247 3.13712,-0.0866 5.10352,-0.9082 2.095,-0.87537 5.51401,-1.33491 8.25781,-1.11133 4.1711,0.33989 12.26729,-0.79289 16.40039,-2.29297 0.825,-0.29946 1.87604,-0.45858 2.33594,-0.35547 0.4599,0.1031 1.07539,-0.72601 1.36718,-1.84179 0.29181,-1.11578 0.91422,-2.0293 1.38282,-2.0293 0.4686,0 0.61592,0.61338 0.32812,1.36328 -0.4594,1.19729 3.97714,2.69388 9.08594,3.06445 0.55,0.0399 0.90044,-1.50273 0.77734,-3.42773 -0.2218,-3.46892 -0.21566,-3.47558 0.83204,-0.75 0.6648,1.72936 1.862,2.80654 3.2246,2.90234 1.1916,0.0838 2.61602,0.22325 3.16602,0.31055 5.0912,0.80816 14.0117,1.81291 18.5,2.08203 3.025,0.18138 8.0875,0.62646 11.25,0.99023 4.29291,0.4938 5.75,0.34383 5.75,-0.59179 0,-0.85386 0.58704,-0.7213 1.84375,0.41601 2.0258,1.83332 12.39319,4.84201 15.62109,4.53321 1.1191,-0.10706 3.34973,0.34236 4.95704,0.99804 1.60739,0.65569 3.50493,0.96774 4.21484,0.69532 0.70989,-0.27243 2.1591,0.60943 3.2207,1.95898 1.5394,1.95702 2.04511,2.15082 2.50391,0.95508 0.3164,-0.82457 1.26511,-1.5 2.10742,-1.5 2.1983,0 1.99021,-6.18022 -0.36328,-10.78906 -1.7713,-3.46886 -9.08083,-10.77579 -17.71094,-17.70508 -2.61739,-2.10158 -3.86051,-2.60613 -4.16601,-1.68946 -0.3305,0.99146 -0.93451,0.86851 -2.50391,-0.50586 -2.3582,-2.06505 -1.69885,-0.59313 1.87695,4.18946 1.2337,1.65 2.53337,4.35 2.88867,6 0.7305,3.39248 1.36958,3.99578 -6.36132,-6 -2.1269,-2.75 -5.83835,-6.09758 -8.24805,-7.43946 l -4.38086,-2.43945 3.9043,3.70313 c 7.3886,7.00836 2.65962,4.9231 -6.11328,-2.69532 -4.8319,-4.19598 -9.11393,-7.6289 -9.51563,-7.6289 -0.4018,0 0.60819,2.11263 2.24609,4.69531 3.3044,5.21058 3.70862,6.79814 1.51172,5.95508 -0.8074,-0.30982 -1.74824,-0.11127 -2.08984,0.44141 -1.0612,1.71712 -2.98059,-0.70764 -5.80469,-7.3379 -1.8667,-4.38282 -3.63099,-6.85211 -5.90039,-8.2539 l -3.23828,-2 6.22852,-0.29688 c 3.4252,-0.16342 7.1377,0.18988 8.25,0.78516 3.6781,1.96845 2.21458,-0.8407 -1.72852,-3.31836 -3.0823,-1.93675 -5.8867,-2.92701 -9.0625,-2.9082 z m 165.60547,12.73828 4.64648,8.9668 c 2.5556,4.93102 6.52572,11.45603 8.82422,14.5 7.1149,9.42227 27.27791,40.04246 32.94531,50.0332 2.9639,5.225 6.20628,10.7375 7.20508,12.25 2.9054,4.39955 1.25929,3.22468 -5.28711,-3.77344 -9.2421,-9.87983 -22.55125,-26.75951 -27.43945,-34.80078 -13.6157,-22.39797 -19.32172,-34.22178 -20.26562,-41.99219 z m 23.64844,7.91992 c 0.8645,-0.0234 2.9485,2.29428 5.7832,6.52344 1.6801,2.50664 3.69883,5.07954 4.48633,5.71875 1.2378,1.00468 1.21428,1.58076 -0.16602,4.25 -0.8782,1.69829 -1.78708,3.08789 -2.02148,3.08789 -0.7186,0 -8.52344,-17.17781 -8.52344,-18.75977 0,-0.5438 0.15321,-0.8125 0.44141,-0.82031 z m 15.21093,15.2832 2.04493,2.89844 c 6.2549,8.86283 10.05509,19.48103 10.96679,30.64844 0.3814,4.6708 0.256,7.75 -0.3164,7.75 -0.5223,0 -1.92795,-2.1375 -3.12305,-4.75 -1.1952,-2.6125 -4.88522,-9.86802 -8.19922,-16.125 C 735.71129,567.07353 733,561.13505 733,560.1352 c 0,-0.99985 1.04687,-3.03413 2.32617,-4.52149 z m -443.73437,9.84961 c 0.083,-0.0176 0.15168,-0.008 0.20898,0.0274 1.0558,0.65257 -1.38673,7.23813 -5.64843,15.22851 -3.4177,6.40815 -11.46861,16.74019 -11.47461,14.72461 -0.012,-4.18309 14.34996,-29.43617 16.91406,-29.98047 z M 707.375,574.20551 c 0.89701,0 7.95804,11.69228 9.21875,15.26562 2.42859,6.88318 0.97295,5.13987 -4.40234,-5.27343 -2.83681,-5.4956 -5.0043,-9.99219 -4.81641,-9.99219 z m -369.58008,16.04297 c 0.4764,0.20788 -0.45741,3.71965 -2.72851,9.27734 -3.6232,8.86644 -6.48787,18.6157 -9.00977,30.66406 -1.0619,5.073 -2.1742,9.46721 -2.4707,9.76367 -1.3036,1.30363 -1.8241,-3.6064 -1.2461,-11.74804 0.6794,-9.57141 3.77157,-19.60504 7.94727,-25.78516 1.3802,-2.0427 3.68043,-5.96141 5.11133,-8.70703 1.3164,-2.52587 2.11069,-3.58957 2.39648,-3.46484 z m 381.46875,7.49218 c 0.14441,-0.0874 0.67083,0.82849 1.79883,2.87891 5.40481,9.82468 6.40942,14.99721 6.42383,33.08594 0.014,16.89576 -0.01,17.04977 -3.25781,25.11719 -3.8392,9.52575 -9.16485,17.44654 -17.62305,26.20898 C 700.42057,691.43916 695,695.92562 695,694.63715 c 0,-0.38789 2.54715,-3.6813 5.66016,-7.31836 7.6632,-8.95305 12.2892,-16.34265 15.0957,-24.11328 l 2.34766,-6.5 -3.29688,4 c -8.19399,9.94227 -10.84556,11.04001 -5.72656,2.37109 8.7952,-14.89418 12.4319,-30.06162 11.5957,-48.37109 -0.3015,-6.6 -0.82135,-13.35 -1.15625,-15 -0.2481,-1.22231 -0.36805,-1.89688 -0.25586,-1.96485 z m 20.11914,12.46485 c 0.687,0 8.72597,10.65152 11.50977,15.25 1.2486,2.0625 2.04704,3.75 1.77344,3.75 -0.6452,0 -5.49385,-6.27148 -9.27735,-12 -4.20939,-6.37345 -4.56796,-7 -4.00586,-7 z m 16.81641,3 c 0.7014,0 4.28831,3.13552 7.9707,6.9668 7.721,8.03323 12.73839,17.474 13.4668,25.33984 0.3514,3.79519 -0.17045,7.20861 -1.93945,12.67578 l -2.41993,7.48047 -2.13867,-4.19141 C 769.55567,658.37387 769,655.46292 769,650.26801 c 0,-9.94574 -5.20299,-22.79186 -12.24609,-30.23633 -1.751,-1.85072 -2.15549,-6.82617 -0.55469,-6.82617 z m -456.99219,2 c 0.4867,0 0.58666,1.6875 0.22266,3.75 -0.364,2.0625 -1.28402,4.40948 -2.04492,5.21484 -1.1983,1.26817 -1.38477,1.10689 -1.38477,-1.20312 0,-3.10618 1.92403,-7.76172 3.20703,-7.76172 z m 6.66016,14.58203 c 0.4913,0.20509 1.1012,2.11629 1.5664,5.62305 0.386,2.90969 2.27107,8.24595 4.23047,11.97461 4.3618,8.30047 3.93812,10.6213 -0.86328,4.73046 -4.1224,-5.0578 -5.78692,-10.14854 -5.79492,-17.71875 0,-3.31404 0.36993,-4.81446 0.86133,-4.60937 z m 353.05664,2.57617 c 0.1241,0.0947 -0.043,0.84406 -0.37695,2.3418 -0.36771,1.65 -2.05786,6.0375 -3.75586,9.75 -2.9122,6.36718 -5.75086,9.39254 -4.22266,4.5 1.2759,-4.08444 5.29948,-12.7235 6.98828,-15.00586 0.8288,-1.12006 1.24309,-1.68064 1.36719,-1.58594 z m -369.45703,1.98438 c 0.1919,0.19695 0.05,5.75742 -0.31641,12.35742 -0.6126,11.04873 -0.77909,11.80182 -2.08789,9.5 -1.92509,-3.38562 -1.71872,-13.57089 0.37109,-18.35742 0.9264,-2.12194 1.84131,-3.69694 2.03321,-3.5 z m -10.83399,11.09179 c 0.2913,0.0464 0.31864,0.91395 0.33594,2.85547 0.048,5.39549 3.69386,18.61248 6.53906,23.70313 l 2.51367,4.49804 -2.60742,6.60352 c -4.2619,10.79706 -4.68017,10.82809 -9.54687,0.68555 -3.548,-7.39432 -4.27966,-9.99661 -4.66016,-16.56836 -0.3935,-6.79757 -0.13036,-8.4837 2.05664,-13.1543 1.3796,-2.94635 3.2216,-6.25742 4.0918,-7.35742 0.6655,-0.84126 1.05084,-1.30168 1.27734,-1.26563 z m 461.6543,7.8418 c 0.30151,-0.0842 0.66754,0.62718 1.08203,2.17383 1.1028,4.11503 0.65118,13.88459 -0.92383,19.96289 -1.7057,6.58243 -5.01306,12.52496 -9.75976,17.53711 -2.8483,3.00766 -4.68555,4.05805 -4.68555,2.67969 0,-0.31341 1.28923,-2.45091 2.86523,-4.75 7.0911,-10.34451 10.37541,-19.92997 10.53321,-30.74024 0.064,-4.37359 0.38617,-6.72298 0.88867,-6.86328 z m -404.0625,0.89648 c 0.1785,0.0297 0.089,0.47665 -0.20313,1.29688 -2.238,6.28072 -18.39563,28.05 -26.51953,35.73047 -8.6064,8.13657 -17.13465,21.37322 -19.91015,30.90039 -2.5212,8.65419 -3.71255,21.02669 -2.71485,28.18945 0.4911,3.52613 0.75449,6.56399 0.58399,6.75196 -0.8641,0.95282 -5.56592,-8.08899 -6.91602,-13.30079 -3.4311,-13.245 -0.39844,-26.24307 9.69336,-41.54101 1.6327,-2.475 10.93874,-12.375 20.68164,-22 9.7429,-9.625 19.59965,-19.75 21.90235,-22.5 2.0666,-2.46812 3.10494,-3.57692 3.40234,-3.52735 z m 290.55664,5.66993 c 0.71609,0.001 -0.623,3.87665 -3.6543,9.73437 C 619.02825,677.5031 615,683.29174 615,681.2602 c 0,-1.61466 6.34009,-14.18959 9.49609,-18.83399 1.2087,-1.77876 1.95965,-2.57867 2.28516,-2.57812 z m 125.52539,0.21875 c 0.37801,-0.13315 1.70754,0.97828 3.99414,3.29101 5.792,5.85828 7.71271,9.14734 7.62891,13.0625 -0.039,1.80685 -0.42261,4.18516 -0.85352,5.28516 -0.6354,1.62248 -1.08607,0.96183 -2.38867,-3.5 -0.8832,-3.025 -3.19919,-8.14197 -5.14648,-11.3711 -2.63521,-4.36969 -3.72037,-6.59638 -3.23438,-6.76757 z m -372.03711,10.11132 c 0.4085,-0.0125 0.85005,0.70011 1.21875,2.27735 5.4754,23.42573 4.51056,39.33438 -3.39844,56.06054 -3.9338,8.31922 -13.90937,22.60576 -21.08007,30.18946 -2.0802,2.2 -4.49007,5.35 -5.35547,7 -3.8368,7.31579 -0.13012,-6.45805 5.11328,-19 1.3796,-3.3 4.95888,-10.13296 7.95508,-15.18555 2.9961,-5.0526 6.74994,-13.23191 8.33984,-18.17578 2.9745,-9.24965 5.9375,-28.06155 5.9375,-37.68945 0,-3.41875 0.58874,-5.45584 1.26953,-5.47657 z m 264.50781,4.64258 c 0.1399,-0.0528 0.21825,0.002 0.21875,0.17969 0,1.16872 -2.25968,4.64352 -13.48828,20.70508 -3.90689,5.58851 -13.26618,14.70059 -13.95508,13.58594 -0.8598,-1.39117 4.02937,-8.07455 12.94727,-17.69727 4.95001,-5.34124 10.2359,-11.55224 11.74609,-13.80078 1.1326,-1.6864 2.11145,-2.81427 2.53125,-2.97266 z m 118.34571,12.14453 c 0.5571,0.0957 0.87695,1.45194 0.87695,4.10547 0,7.42699 -3.80065,15.88943 -9.87695,21.99024 -4.9588,4.97886 -12.12305,9.26105 -12.12305,7.24609 0,-0.39933 1.38828,-2.04866 3.08398,-3.66406 5.0556,-4.81652 12.55008,-16.82989 14.89258,-23.86914 1.3216,-3.97145 2.43029,-5.93171 3.14649,-5.8086 z m -318.39844,7.74024 0.82227,4 c 0.4519,2.2 0.82889,8.5 0.83789,14 0.01,5.5 -0.47939,10.87538 -1.08399,11.94531 -0.9905,1.7527 -1.20646,1.55465 -2.19336,-2 -1.4931,-5.37782 -1.35676,-16.87551 0.27344,-22.94531 z m 192.53125,13.65234 c 0.51589,-0.0869 0.74414,0.51968 0.74414,1.79102 0,2.68575 -9.53088,12.72841 -19.23828,20.26953 -14.47901,11.24787 -20.19539,16.32582 -24.02539,21.34961 -2.07011,2.71532 -4.8279,7.05534 -6.12891,9.64258 -2.75649,5.48183 -3.74777,5.36292 -2.47656,-0.29493 2.4315,-10.82177 15.47505,-26.14728 28.86914,-33.92187 9.64341,-5.59753 15.22148,-10.06995 18.70898,-15 1.7443,-2.46584 2.88367,-3.72418 3.54688,-3.83594 z m -304.50195,9.25781 c 0.2596,0.0228 -0.63732,2.08015 -2.63672,6.17969 -4.0529,8.31008 -7.3597,23.15274 -7.5,33.6582 -0.064,4.81144 -0.39839,8.74901 -0.74219,8.75 -1.0989,0.003 -1.875,-6.0054 -1.875,-14.51757 0,-10.51757 2.51908,-18.86539 8.45898,-28.03516 2.6203,-4.04507 4.03533,-6.05793 4.29493,-6.03516 z m 346.17968,2.41407 c 0.045,-0.0162 0.0664,-0.009 0.0664,0.0215 0,0.48687 -0.8308,1.95786 -1.8457,3.26953 -5.0631,6.54335 -9.05387,12.88477 -8.10938,12.88477 0.5825,0 2.72381,-0.85559 4.75781,-1.90235 8.8682,-4.56387 14.19727,-6.1602 14.19727,-4.25195 0,0.46479 -3.03047,3.05229 -6.73438,5.75 -10.7024,7.79492 -21.07071,17.29095 -30.75781,28.17188 -4.9407,5.54958 -9.12959,9.94465 -9.30859,9.76562 -0.17899,-0.17903 1.53634,-4.08528 3.81055,-8.67969 3.5271,-7.12542 3.74916,-7.91247 1.50976,-5.35351 -4.5708,5.22313 -8.39967,11.6214 -10.10937,16.89453 -1.78009,5.49037 -3.41015,8.06852 -3.41015,5.39451 0,-0.88599 0.85253,-4.3493 1.89453,-7.69726 3.3396,-10.73019 11.07834,-21.11406 31.11914,-41.75586 6.6966,-6.89733 12.25162,-12.2684 12.91992,-12.51172 z m -383.3125,3.96289 c 0.027,-0.0131 0.0522,-0.0108 0.0742,0.006 0.224,0.17054 0.16387,1.94056 0.0137,5.93945 -0.1502,3.99005 -0.81803,7.777 -1.49023,8.44922 -1.7592,1.7592 -1.49134,-7.63128 0.34766,-12.18164 0.5323,-1.31715 0.86338,-2.12147 1.05468,-2.21289 z m 115.5,0.71289 -2.31054,4.72265 c -1.2709,2.59739 -2.62196,4.7349 -3.00196,4.75 -1.9261,0.0765 -1.26809,-1.87082 1.84961,-5.47265 z m 331.76953,12.7793 c 0.4236,-0.0254 1.03008,0.52225 2.01368,1.7207 2.462,2.99993 5.49617,11.5437 4.60937,12.97851 -1.4514,2.34851 -12.75967,-0.14072 -14.66797,-3.22851 -0.4157,-0.67251 0.88288,-2.89979 3.07618,-5.2793 2.08709,-2.26416 4.04872,-4.75833 4.36132,-5.54297 0.1634,-0.41033 0.35323,-0.63324 0.60742,-0.64843 z m -302.13867,5.7207 c 0.973,0 9.68019,14.33409 11.77539,19.38476 2.5115,6.05422 3.00743,16.26328 1.10743,22.79883 -0.892,3.06833 -2.50835,6.64431 -3.59375,7.94727 l -1.97461,2.36914 -0.0332,-8.6875 c -0.037,-9.58407 -1.83772,-18.89657 -5.57812,-28.83399 -2.327,-6.18263 -3.32753,-14.97851 -1.70313,-14.97851 z m 176.13672,6.01367 c 0.7474,0.0199 0.82133,0.65968 0.14063,1.93164 -0.57231,1.06937 -1.44486,2.19435 -1.93946,2.5 -0.4945,0.30565 -2.34317,3.11468 -4.10937,6.24414 -1.76611,3.12947 -6.75931,10.14025 -11.0957,15.57813 -8.4005,10.53451 -9.2856,10.56552 -6.52539,0.23242 2.7711,-10.37385 7.75323,-17.07393 17.49023,-23.52344 3.0064,-1.99139 5.07827,-2.98854 6.03906,-2.96289 z m 79.69141,5.21875 c 0.1467,0.005 -0.084,0.70424 -0.63281,2.23633 -0.5851,1.63235 -2.72536,4.9733 -4.75586,7.42383 -2.0306,2.45052 -4.4747,5.61413 -5.4336,7.03125 -1.2069,1.78372 -1.745,2.08165 -1.75,0.96679 -0.01,-1.78486 3.38126,-7.09889 7.41407,-11.625 1.44359,-1.62016 3.29172,-3.80506 4.10742,-4.85547 0.5954,-0.76681 0.93678,-1.18194 1.05078,-1.17773 z m 8.91992,5.58008 0.30469,5.71875 c 0.38729,7.29539 -2.1215,15.37835 -6.1875,19.93945 -1.71451,1.92319 -5.25468,4.38912 -7.86719,5.47852 -4.69899,1.95946 -4.75,1.95848 -4.75,0.0293 0,-5.09182 2.76023,-11.50424 7.23633,-16.81445 2.62609,-3.11552 6.23482,-7.61887 8.01953,-10.00781 z m -53.74219,13.36328 c 0.25031,0.0372 0.16922,0.4854 -0.21679,1.41016 -0.4394,1.05272 -0.88474,2.58906 -0.99024,3.41406 -0.1056,0.825 -1.18298,3.4125 -2.39258,5.75 -1.2097,2.3375 -2.42296,4.25 -2.69726,4.25 -1.5079,0 3.64565,-13.32823 5.62695,-14.55274 0.2305,-0.1425 0.41127,-0.23177 0.54297,-0.26172 0.049,-0.0112 0.091,-0.0149 0.12695,-0.01 z m -239.18359,1.11328 c 0.2801,0.0498 0.42578,0.54013 0.42578,1.45313 0,1.17754 0.45,2.41789 1,2.75781 1.6514,1.02063 1.1663,9.81816 -0.6875,12.46484 -1.1971,1.70908 -1.3425,2.52581 -0.5,2.80664 0.6534,0.21779 1.1875,0.80834 1.1875,1.3125 0,1.59749 -1.47215,0.99126 -2.81445,-1.1582 -1.0831,-1.73429 -1.01444,-2.80449 0.41406,-6.54492 1.4002,-3.66635 1.50362,-5.13709 0.57812,-8.15235 -0.7335,-2.39022 -0.78614,-4.01855 -0.15234,-4.65234 0.1585,-0.15845 0.29882,-0.25213 0.41992,-0.28125 0.045,-0.0109 0.089,-0.0129 0.12891,-0.006 z m 260.39453,8.56836 c 0.44439,-0.0888 0.80488,1.63287 1.55469,6.22852 0.6807,4.17181 1.54698,8.5605 1.92578,9.7539 0.50559,1.59317 0.20474,2.34325 -1.13086,2.81836 -1.00041,0.35589 -2.65931,1.36524 -3.6875,2.24414 -1.8136,1.55027 -1.84726,1.31393 -1.12695,-7.90234 0.4083,-5.225 1.20092,-10.625 1.76171,-12 0.2808,-0.6885 0.50113,-1.10222 0.70313,-1.14258 z m -252.83398,4.11523 c 0.838,0.0912 1.95596,1.9087 2.69335,5.10352 3.73882,16.19734 -0.71792,24.75036 -17.54882,33.67383 -13.2264,7.01244 -13.89398,5.5919 -3.49219,-7.43946 C 414.46701,802.63078 419,795.19171 419,790.2641 c 0,-2.1824 0.48297,-3.15687 1.13477,-3.08594 z m -41.36329,8.02735 c 1.6768,0 2.39843,0.91423 3.26563,4.13476 0.6123,2.27386 0.84031,5.21843 0.50781,6.54297 -0.594,2.36698 -0.56062,2.37914 1.92578,0.75 1.3914,-0.91165 2.5293,-2.28123 2.5293,-3.04297 0,-0.76174 0.81078,-1.38476 1.80078,-1.38476 0.99,0 2.33162,-0.53277 2.98242,-1.1836 0.6509,-0.65084 1.47855,-0.88669 1.83985,-0.52539 0.7175,0.71754 -6.01488,8.66619 -8.55078,10.09571 -0.865,0.48761 -2.58477,1.80307 -3.82227,2.92382 -2.5623,2.32057 -2.91144,1.65456 -0.83594,-1.5957 1.8241,-2.85664 0.33933,-13.5953 -2.13867,-15.46484 -1.4925,-1.126 -1.44301,-1.25 0.49609,-1.25 z m -44.01171,2.80469 c 0.4354,0.11319 -0.27217,2.27786 -2.13477,6.41796 -2.8211,6.2705 -7.94048,11.43463 -12.68359,12.79493 -4.4602,1.27918 -14.6473,1.26731 -15.44141,-0.0176 -0.351,-0.56792 0.49635,-1 1.96094,-1 3.8333,0 14.04002,-4.43568 18.70312,-8.12891 2.2505,-1.78244 5.38535,-5.02652 6.96485,-7.20703 1.3097,-1.80799 2.15309,-2.75255 2.52929,-2.85547 0.039,-0.0107 0.072,-0.0113 0.10157,-0.004 z m 295.78125,10.12304 c 0.217,0.0622 0.31047,1.26999 0.35937,3.86524 0.1355,7.19679 2.54445,18.36141 6.06445,28.10937 1.6083,4.4538 2.54523,8.09766 2.08204,8.09766 -1.21001,0 -7.83652,-14.12912 -9.00782,-19.20703 -1.1622,-5.03837 -1.18436,-16.21703 -0.0391,-19.79297 0.2356,-0.73559 0.41071,-1.1096 0.54102,-1.07227 z m -252.15235,20.45508 c 0.3586,0.0159 0.61133,0.41549 0.61133,1.05859 0,0.85746 0.35658,1.5586 0.79297,1.5586 1.4376,0 3.16126,8.35089 2.00976,9.73828 -1.6624,2.00315 -2.80273,1.47592 -2.80273,-1.29688 0,-1.4316 0.43528,-2.28905 0.98828,-1.94726 1.3365,0.82602 -0.01,-2.61898 -1.68164,-4.31445 -1.5533,-1.57163 -1.70074,-3.81809 -0.30664,-4.67969 0.1375,-0.085 0.26907,-0.12248 0.38867,-0.11719 z m 286.625,6.11719 4.03906,4.71289 c 2.2216,2.59186 6.26934,5.92515 8.99415,7.4082 2.7249,1.48305 4.95312,3.07647 4.95312,3.53906 0,0.46259 -1.53797,0.83985 -3.41797,0.83985 -1.88,0 -4.0175,0.19071 -4.75,0.42383 -1.9063,0.60669 -7.86392,-1.72746 -8.82812,-3.45899 -0.9125,-1.63873 -1.38524,-5.94687 -1.14844,-10.46484 z"
       sodipodi:nodetypes="ccsccccsssscccccsssssscssssscsssssssssssccscssscsccsccsssscsccsssssssscccsssssssssssssssssssssccccsssccsssssssssssssscccssssssssssssssssssssccscsscccsssssssssssscssssccsssssssssssscccssssssssscccsssssssssssssssssssssssssssssssssssccssssssccccsssssssscsssssssssssscssssssscccsssssssssscsssccsssssssssssssssssssccsscccsssssssssssssssssssssssssssssssssscsssssscssssssscssssssssssssssssssscccssssccccsscccsssccccssccsssssssssssssssssssccccsssscssssssssssscscccsccsssssssssssscccsscssccsssccccscsscssssscccssscsssssssssssccscssssscsscssssscsssccscccccssscscssssccsssssssssccsssssssscsscsccssssssssssssssssssssssssssssssssssssssssssssccsssssscccsssccsssscccsssssssccsssssccscscsssssssscssssssccssssccsssssssssssscccsssssssssssscsscssssscssssscccsssssssssssssscssssssssscssscsscssssscsscsssssscssssssssscsscccssccssssssssssscsssssssssssssssssssscccsscccsccsssssssssscccssssssssssccsscsscccsssscccssssssccsssssssssscssssssssscsssssscsssssssssscssssssscssssssssssssscssccssssscc"
       transform="translate(-207,-126.72033)" />
  </g>
</svg>
